<svg xmlns="http://www.w3.org/2000/svg" viewBox="0 0 64 64">
  <style>
    @media (prefers-color-scheme: light) {
      path {
        fill: #144A38;
      }
    }

    @media (prefers-color-scheme: dark) {
      path {
        fill: #82e578;
      }
    }
  </style>
  <g id="nib">
    <path d="M37.9477 0V13.5903L32.0025 19.5355L26.0574 13.5903V0H37.9477Z" fill="#144A38"></path>
    <path d="M64 37.9477H50.4097L44.4645 32.0025L50.4097 26.0574H64V37.9477Z" fill="#144A38"></path>
    <path d="M58.8341 13.5751L49.2206 23.1886H40.8115V14.7844L50.4249 5.171L58.8341 13.5751Z" fill="#144A38"></path>
    <path d="M50.4299 58.8341L40.8165 49.2206V40.8115H49.2257L58.8391 50.4249L50.4299 58.8341Z" fill="#144A38"></path>
    <path d="M13.5751 5.16594L23.1886 14.7793V23.1886H14.7844L5.171 13.5751L13.5751 5.16594Z" fill="#144A38"></path>
    <path d="M0 26.0574H37.9477V64H26.0574V46.3518L13.5751 58.8341L5.171 50.4249L17.6482 37.9477H0V26.0574Z"
      fill="#144A38"></path>
  </g>

</svg>